<svg width="36" height="39" viewBox="0 0 36 39" fill="none" xmlns="http://www.w3.org/2000/svg">
<path d="M34.8987 8.64783C34.5911 8.00451 34.1506 7.46841 33.6203 7.09181C33.0899 6.71521 32.4877 6.51096 31.8724 6.49901H9.086L8.05349 1.64266C7.94917 1.17387 7.71643 0.761522 7.39318 0.47278C7.06992 0.184037 6.6752 0.0359124 6.2733 0.0525298H2.71293C2.24079 0.0525298 1.78799 0.278923 1.45414 0.681906C1.12029 1.08489 0.932739 1.63145 0.932739 2.20136C0.932739 2.77126 1.12029 3.31782 1.45414 3.7208C1.78799 4.12379 2.24079 4.35018 2.71293 4.35018H4.92036L9.83368 26.3971C9.93799 26.8659 10.1707 27.2783 10.494 27.567C10.8172 27.8558 11.212 28.0039 11.6139 27.9873H27.6355C27.9643 27.9861 28.2863 27.875 28.566 27.6664C28.8456 27.4578 29.072 27.1598 29.2199 26.8054L35.0589 12.7091C35.312 12.0688 35.4298 11.3628 35.4019 10.6542C35.3739 9.9455 35.201 9.25622 34.8987 8.64783ZM26.5318 23.6896H12.9668L10.0651 10.7967H31.8724L26.5318 23.6896Z" fill="#231F20"/>
<path d="M10.7238 38.7311C12.1986 38.7311 13.3941 37.2881 13.3941 35.5079C13.3941 33.7278 12.1986 32.2847 10.7238 32.2847C9.24905 32.2847 8.05353 33.7278 8.05353 35.5079C8.05353 37.2881 9.24905 38.7311 10.7238 38.7311Z" fill="#231F20"/>
<path d="M28.5257 38.7311C30.0005 38.7311 31.196 37.2881 31.196 35.5079C31.196 33.7278 30.0005 32.2847 28.5257 32.2847C27.051 32.2847 25.8555 33.7278 25.8555 35.5079C25.8555 37.2881 27.051 38.7311 28.5257 38.7311Z" fill="#231F20"/>
</svg>
