<svg xmlns="http://www.w3.org/2000/svg" fill="none" viewBox="0 0 30 30">
  <path fill="#000" d="M26.39 0C28.34 0 29.908 1.421 30 3.096V30l-3.707-2.842-2.034-1.67-2.225-1.748.926 2.755H3.517C1.574 26.495 0 25.166 0 23.399V3.101C0 1.427 1.575.006 3.523.006H26.38L26.39 0Zm-8.474 7.104h-.044l-.281.25c2.873.752 4.264 1.923 4.264 1.923-1.85-.835-3.524-1.255-5.19-1.425-1.201-.166-2.408-.078-3.425 0h-.282c-.65 0-2.034.254-3.891.922-.644.254-1.017.42-1.017.42S9.435 7.94 12.498 7.27l-.19-.166s-2.315-.083-4.815 1.588c0 0-2.5 3.93-2.5 8.774 0 0 1.385 2.173 5.185 2.255 0 0 .556-.663 1.114-1.25-2.131-.585-2.965-1.757-2.965-1.757s.19.083.466.25h.08c.044 0 .066.019.087.039v.009a.11.11 0 0 0 .081.034c.46.17.914.336 1.288.502.65.25 1.478.503 2.495.67 1.288.17 2.765.249 4.448 0 .828-.171 1.661-.332 2.494-.67.536-.25 1.201-.498 1.932-.922 0 0-.828 1.171-3.053 1.757.455.582 1.098 1.25 1.098 1.25 3.804-.078 5.281-2.25 5.363-2.158 0-4.838-2.517-8.774-2.517-8.774-2.262-1.519-4.383-1.577-4.756-1.577l.076-.024.007.004Zm.233 5.519c.974 0 1.758.747 1.758 1.665 0 .928-.79 1.674-1.758 1.674-.975 0-1.76-.747-1.76-1.665 0-.928.79-1.675 1.76-1.675Zm-6.293 0c.968 0 1.753.747 1.753 1.665 0 .928-.79 1.674-1.759 1.674-.974 0-1.764-.747-1.764-1.665 0-.928.79-1.675 1.764-1.675h.006Z"/>
</svg>
