<svg xmlns="http://www.w3.org/2000/svg" fill="none" viewBox="0 0 31 30">
  <path fill="#231F20" d="M21.017 8.998a9.716 9.716 0 0 0-9.75 9.7v9.799a1.5 1.5 0 0 0 1.5 1.5h3.5a1.5 1.5 0 0 0 1.5-1.5v-9.8a3.232 3.232 0 0 1 3.583-3.216 3.333 3.333 0 0 1 2.917 3.333v9.683a1.5 1.5 0 0 0 1.5 1.5h3.5a1.5 1.5 0 0 0 1.5-1.5v-9.8a9.715 9.715 0 0 0-9.75-9.699ZM6.765 10.502h-4.5a1.5 1.5 0 0 0-1.5 1.5V28.5a1.5 1.5 0 0 0 1.5 1.5h4.5a1.5 1.5 0 0 0 1.5-1.5V12.002a1.5 1.5 0 0 0-1.5-1.5ZM4.516 7.5a3.75 3.75 0 1 0 0-7.5 3.75 3.75 0 0 0 0 7.5Z"/>
</svg>
