<svg xmlns="http://www.w3.org/2000/svg" fill="none" viewBox="0 0 27 30">
  <path fill="#000" d="M13.691.025C15.327 0 16.954.015 18.58 0c.098 1.914.786 3.863 2.187 5.216 1.398 1.386 3.375 2.021 5.299 2.236v5.033c-1.803-.059-3.614-.434-5.25-1.21-.713-.322-1.377-.738-2.026-1.163-.009 3.653.015 7.301-.024 10.939-.097 1.747-.674 3.487-1.69 4.927-1.635 2.397-4.473 3.96-7.388 4.009-1.788.102-3.574-.386-5.097-1.284C2.065 27.214.288 24.49.03 21.563c-.03-.625-.041-1.25-.016-1.86a9.37 9.37 0 0 1 3.228-6.201c2.07-1.803 4.97-2.662 7.685-2.154.026 1.852-.048 3.702-.048 5.553-1.24-.401-2.69-.289-3.774.464A4.33 4.33 0 0 0 5.4 19.553c-.26.633-.185 1.337-.17 2.01.297 2.052 2.27 3.776 4.375 3.59 1.396-.015 2.734-.825 3.462-2.011.235-.416.499-.84.513-1.329.123-2.236.074-4.463.089-6.699.01-5.04-.015-10.064.023-15.088Z"/>
</svg>
