<svg xmlns="http://www.w3.org/2000/svg" fill="none" viewBox="0 0 31 30">
  <path fill="#000" fill-rule="evenodd" d="M29.202 0H4.778c-.52 0-1.026.255-1.31.675l-2.434 3.45c-.173.244-.267.53-.268.825V24c0 .825.71 1.5 1.58 1.5h3.16c.868 0 1.579.675 1.579 1.5v1.5c0 .825.71 1.5 1.58 1.5h2.306c.521 0 1.027-.255 1.311-.675l2.228-3.165c.3-.42.79-.675 1.311-.675h6.398c.427 0 .822-.165 1.122-.435l6.966-6.615c.148-.14.264-.306.343-.489a1.42 1.42 0 0 0 .116-.576V1.5C30.78.675 30.07 0 29.202 0Zm-15.34 16.29c0 .48-.41.855-.9.855H11.16a.926.926 0 0 1-.637-.25.834.834 0 0 1-.264-.605V7.725c0-.48.411-.855.9-.855h1.802c.505 0 .9.39.9.855v8.565Zm9.02 0c0 .48-.41.855-.9.855h-1.8a.941.941 0 0 1-.637-.25.852.852 0 0 1-.196-.278.817.817 0 0 1-.068-.327V7.725c0-.48.41-.855.9-.855h1.801c.506 0 .9.39.9.855v8.565Z" clip-rule="evenodd"/>
</svg>
